<svg version="1.2" baseProfile="tiny-ps" xmlns="http://www.w3.org/2000/svg" viewBox="0 0 598 201" width="598" height="201">
	<title>logo-svg</title>
	<style>
		tspan { white-space:pre }
		.shp0 { fill: #022303 } 
		.shp1 { fill: #006633 } 
	</style>
	<g id="Capa_4">
		<g id="Layer">
			<path id="Layer" fill-rule="evenodd" class="shp0" d="M491.67 75.71C492.5 76.51 493.31 77.34 494.09 78.18C494.88 79.03 495.64 79.89 496.38 80.78C497.12 81.67 497.84 82.57 498.53 83.5C498.67 83.7 498.78 83.91 498.85 84.14C498.93 84.38 498.96 84.62 498.95 84.86C498.94 85.1 498.9 85.34 498.81 85.57C498.73 85.79 498.6 86 498.45 86.19L441.39 154.95C441.14 155.25 440.97 155.61 440.9 156C440.84 156.39 440.88 156.79 441.03 157.16C441.18 157.52 441.42 157.84 441.73 158.08C442.05 158.32 442.42 158.47 442.81 158.51C444.07 158.63 445.33 158.69 446.59 158.69C447.36 158.69 448.13 158.67 448.89 158.61C449.66 158.56 450.43 158.48 451.19 158.37C451.95 158.26 452.71 158.13 453.46 157.96C454.21 157.8 454.95 157.61 455.69 157.39C456.41 157.18 457.13 156.94 457.83 156.68C458.54 156.41 459.23 156.13 459.92 155.82C460.61 155.5 461.28 155.17 461.94 154.81C462.6 154.45 463.25 154.07 463.89 153.67C464.53 153.27 465.16 152.84 465.76 152.39C466.37 151.94 466.96 151.47 467.54 150.98C468.11 150.48 468.66 149.97 469.2 149.43C469.73 148.9 470.25 148.34 470.74 147.77C471.08 147.38 471.41 146.98 471.73 146.57C472.05 146.16 472.36 145.74 472.65 145.32C472.95 144.9 473.24 144.46 473.51 144.03C473.79 143.59 474.06 143.14 474.31 142.69C474.47 142.39 474.7 142.13 474.98 141.94C475.26 141.74 475.58 141.62 475.92 141.57C476.25 141.52 476.6 141.55 476.92 141.65C477.24 141.76 477.54 141.94 477.78 142.18L497.95 162.45C498.13 162.63 498.28 162.85 498.39 163.08C498.5 163.31 498.56 163.57 498.58 163.82C498.6 164.08 498.58 164.34 498.51 164.59C498.44 164.84 498.32 165.07 498.17 165.28C497.49 166.19 496.79 167.08 496.06 167.95C495.34 168.82 494.59 169.67 493.82 170.5C493.04 171.33 492.25 172.14 491.44 172.92C490.62 173.71 489.79 174.48 488.93 175.22C487.97 176.06 486.98 176.87 485.97 177.65C484.95 178.43 483.92 179.19 482.86 179.91C481.81 180.63 480.73 181.32 479.63 181.97C478.54 182.63 477.42 183.26 476.29 183.85C475.16 184.44 474.01 185 472.85 185.52C471.68 186.04 470.5 186.52 469.31 186.97C468.11 187.42 466.91 187.83 465.69 188.21C464.47 188.58 463.24 188.92 462 189.22C460.74 189.53 459.48 189.79 458.21 190.02C456.94 190.25 455.66 190.44 454.37 190.6C453.09 190.75 451.8 190.86 450.51 190.94C449.22 191.01 447.93 191.05 446.64 191.05C442.41 191.08 438.2 190.69 434.05 189.88C429.9 189.07 425.84 187.86 421.93 186.25C418.02 184.64 414.28 182.65 410.77 180.3C407.26 177.95 403.98 175.26 401 172.27C399.51 170.76 398.09 169.18 396.76 167.54C395.42 165.89 394.17 164.18 393 162.42C391.83 160.65 390.75 158.82 389.76 156.95C388.77 155.07 387.87 153.15 387.07 151.19C386.82 150.58 386.58 149.97 386.35 149.36C386.12 148.74 385.89 148.12 385.68 147.5C385.47 146.88 385.27 146.25 385.08 145.62C384.88 145 384.7 144.36 384.53 143.73C384.5 143.62 384.48 143.51 384.46 143.39C384.45 143.28 384.45 143.16 384.45 143.04C384.46 142.93 384.47 142.81 384.5 142.7C384.52 142.59 384.56 142.48 384.6 142.37L413.35 66.81C413.4 66.69 413.45 66.57 413.52 66.46C413.59 66.35 413.66 66.25 413.75 66.15C413.83 66.06 413.93 65.97 414.03 65.89C414.13 65.81 414.24 65.74 414.35 65.68C414.93 65.35 415.51 65.04 416.1 64.73C416.68 64.42 417.27 64.12 417.87 63.83C418.47 63.54 419.07 63.26 419.67 62.99C420.28 62.72 420.89 62.46 421.5 62.21C423.48 61.4 425.51 60.68 427.56 60.07C429.62 59.46 431.7 58.95 433.8 58.54C435.91 58.14 438.03 57.83 440.17 57.64C442.3 57.44 444.45 57.35 446.59 57.36C447.89 57.36 449.19 57.4 450.49 57.47C451.79 57.55 453.09 57.67 454.38 57.83C455.68 57.99 456.96 58.18 458.24 58.42C459.52 58.66 460.8 58.93 462.06 59.25C464.55 59.87 467 60.64 469.4 61.55C471.81 62.46 474.15 63.51 476.43 64.7C478.7 65.89 480.91 67.21 483.03 68.66C485.15 70.11 487.18 71.68 489.11 73.37C489.98 74.13 490.84 74.91 491.67 75.71ZM453.64 93.86C453.86 93.57 454.01 93.22 454.06 92.86C454.11 92.49 454.07 92.12 453.94 91.78C453.81 91.43 453.6 91.13 453.32 90.89C453.04 90.65 452.7 90.48 452.34 90.41L451.14 90.23C450.76 90.19 450.38 90.16 450.01 90.13C449.63 90.1 449.25 90.08 448.87 90.06C448.49 90.04 448.11 90.02 447.73 90.01C447.35 90 446.97 90 446.59 90C445.53 89.99 444.47 90.03 443.41 90.13C442.35 90.22 441.3 90.37 440.25 90.57C439.21 90.77 438.18 91.02 437.16 91.32C436.14 91.62 435.13 91.97 434.15 92.37C433.2 92.76 432.26 93.2 431.36 93.69C430.45 94.18 429.57 94.71 428.71 95.29C427.86 95.87 427.04 96.5 426.25 97.16C425.47 97.83 424.71 98.54 424 99.28C423.26 100.06 422.57 100.87 421.91 101.71C421.25 102.56 420.64 103.44 420.07 104.34C419.5 105.25 418.97 106.18 418.5 107.14C418.02 108.1 417.59 109.08 417.21 110.08C416.78 111.21 416.41 112.37 416.09 113.53C415.77 114.7 415.51 115.88 415.3 117.08C415.09 118.27 414.94 119.47 414.84 120.68C414.75 121.89 414.71 123.1 414.73 124.31C414.73 125.47 414.78 126.81 414.9 128.31C415.02 129.81 415.22 131.33 415.49 132.86C415.76 134.39 416.09 135.87 416.49 137.28L416.49 137.33C416.6 137.72 416.82 138.07 417.13 138.33C417.43 138.6 417.8 138.78 418.2 138.85C418.6 138.92 419.01 138.88 419.38 138.73C419.76 138.58 420.08 138.33 420.32 138L453.64 93.86Z" />
			<path id="Layer" class="shp0" d="M563.84 64.69C560.54 64.69 557.24 64.98 553.98 65.55C550.73 66.13 547.53 66.98 544.43 68.1C541.32 69.23 538.32 70.62 535.45 72.27C532.59 73.91 529.87 75.8 527.33 77.92C527.1 78.11 526.83 78.25 526.55 78.33C526.26 78.42 525.96 78.44 525.66 78.4C525.36 78.36 525.08 78.25 524.83 78.1C524.57 77.94 524.35 77.74 524.18 77.49L515.6 65.38C515.5 65.24 515.38 65.11 515.25 64.99C515.12 64.88 514.97 64.78 514.82 64.7C514.66 64.62 514.5 64.56 514.33 64.52C514.16 64.48 513.98 64.46 513.81 64.46L509.33 64.46C509.04 64.46 508.76 64.52 508.5 64.63C508.23 64.74 507.99 64.9 507.79 65.1C507.59 65.3 507.43 65.54 507.32 65.81C507.21 66.07 507.15 66.35 507.15 66.64L507.15 188.76C507.15 189.05 507.21 189.33 507.32 189.59C507.43 189.86 507.59 190.1 507.79 190.3C507.99 190.5 508.23 190.66 508.5 190.77C508.76 190.88 509.04 190.94 509.33 190.94L537.21 190.94C537.5 190.94 537.78 190.88 538.04 190.77C538.31 190.66 538.55 190.5 538.75 190.3C538.95 190.1 539.11 189.86 539.22 189.59C539.33 189.33 539.39 189.05 539.39 188.76L539.39 121.26C539.37 118.04 539.98 114.85 541.2 111.88C542.42 108.9 544.22 106.19 546.5 103.92C548.77 101.64 551.48 99.84 554.46 98.62C557.43 97.4 560.62 96.79 563.84 96.81L590.11 96.81C590.4 96.81 590.68 96.76 590.95 96.65C591.21 96.54 591.45 96.38 591.66 96.18C591.86 95.97 592.02 95.73 592.13 95.47C592.24 95.2 592.3 94.92 592.3 94.63L592.3 66.88C592.3 66.59 592.24 66.31 592.13 66.04C592.02 65.78 591.86 65.53 591.66 65.33C591.46 65.13 591.21 64.97 590.95 64.86C590.68 64.75 590.4 64.69 590.11 64.69L563.84 64.69Z" />
			<path id="Layer" class="shp0" d="M403 64.46L367.67 64.46C367.44 64.46 367.22 64.49 367.01 64.56C366.79 64.63 366.59 64.73 366.4 64.86C366.22 64.99 366.06 65.15 365.92 65.33C365.78 65.51 365.68 65.71 365.6 65.92L340.66 137.45C340.51 137.88 340.23 138.25 339.86 138.51C339.5 138.78 339.05 138.92 338.6 138.92C338.15 138.92 337.7 138.78 337.34 138.51C336.97 138.25 336.69 137.88 336.54 137.45L311.49 66C311.41 65.78 311.31 65.58 311.17 65.4C311.03 65.22 310.86 65.06 310.67 64.93C310.48 64.8 310.28 64.7 310.06 64.63C309.84 64.57 309.61 64.53 309.38 64.54L288.38 65C287.95 65.01 287.54 65.14 287.19 65.38C286.83 65.63 286.56 65.97 286.4 66.36C286.24 66.76 286.2 67.2 286.29 67.61C286.37 68.03 286.58 68.42 286.88 68.72C292.15 74.01 300.64 83.86 305.58 96.92C306.34 99.01 307.02 101.12 307.61 103.26C308.21 105.4 308.72 107.57 309.14 109.75C309.56 111.93 309.9 114.12 310.15 116.33C310.41 118.53 310.57 120.75 310.65 122.97C310.65 123.55 310.65 124.03 310.65 124.37C310.67 126.38 310.59 128.39 310.43 130.4C310.27 132.4 310.03 134.4 309.69 136.38C309.36 138.36 308.93 140.33 308.43 142.28C307.92 144.22 307.33 146.15 306.65 148.04C306.6 148.16 306.57 148.29 306.55 148.41C306.52 148.54 306.51 148.67 306.51 148.8C306.51 148.93 306.52 149.06 306.55 149.19C306.57 149.31 306.6 149.44 306.65 149.56L321.89 189.56C321.97 189.76 322.07 189.95 322.21 190.12C322.34 190.29 322.5 190.44 322.68 190.57C322.85 190.69 323.05 190.79 323.25 190.86C323.46 190.93 323.67 190.96 323.89 190.97L353.24 190.97C353.46 190.97 353.67 190.93 353.88 190.86C354.08 190.79 354.28 190.7 354.46 190.57C354.63 190.45 354.79 190.3 354.92 190.12C355.06 189.95 355.16 189.76 355.24 189.56L373 143L402.32 66L403 64.46Z" />
			<path id="Layer" fill-rule="evenodd" class="shp0" d="M281.74 75.85C283.22 77.36 284.63 78.95 285.96 80.6C287.29 82.25 288.54 83.97 289.69 85.74C290.85 87.51 291.92 89.34 292.9 91.22C293.88 93.11 294.76 95.03 295.55 97C296.42 99.17 297.18 101.39 297.83 103.64C298.48 105.88 299.02 108.16 299.44 110.46C299.87 112.77 300.18 115.09 300.38 117.42C300.58 119.75 300.66 122.09 300.63 124.43C300.64 126.51 300.56 128.59 300.39 130.66C300.22 132.73 299.95 134.79 299.59 136.84C299.22 138.89 298.77 140.92 298.22 142.93C297.67 144.93 297.04 146.91 296.31 148.86C296.06 149.55 295.82 150.21 295.55 150.86C294.75 152.82 293.86 154.74 292.88 156.62C291.89 158.5 290.82 160.32 289.66 162.1C288.51 163.87 287.26 165.58 285.94 167.24C284.62 168.89 283.22 170.48 281.74 172C280.28 173.48 278.75 174.89 277.15 176.23C275.55 177.56 273.89 178.82 272.17 179.99C270.45 181.17 268.68 182.26 266.86 183.26C265.03 184.26 263.16 185.18 261.25 186C257.28 187.69 253.16 188.98 248.93 189.84C244.71 190.71 240.41 191.14 236.1 191.14C231.78 191.14 227.48 190.71 223.26 189.84C219.03 188.98 214.91 187.69 210.94 186C207.07 184.34 203.37 182.31 199.9 179.93C196.42 177.55 193.19 174.84 190.24 171.83C187.29 168.82 184.64 165.53 182.33 162.01C180.02 158.49 178.06 154.75 176.48 150.85C175.63 148.76 174.88 146.63 174.23 144.47C173.59 142.31 173.05 140.12 172.63 137.9C172.2 135.69 171.88 133.45 171.68 131.21C171.47 128.96 171.38 126.71 171.4 124.45C171.38 122.17 171.47 119.89 171.67 117.62C171.88 115.35 172.19 113.09 172.62 110.85C173.05 108.61 173.58 106.4 174.23 104.21C174.87 102.03 175.62 99.87 176.48 97.76C177.28 95.79 178.17 93.86 179.16 91.98C180.14 90.09 181.22 88.26 182.39 86.48C183.55 84.7 184.8 82.98 186.13 81.33C187.46 79.67 188.87 78.08 190.36 76.56C191.83 75.08 193.36 73.66 194.96 72.33C196.57 70.99 198.23 69.74 199.95 68.56C201.68 67.39 203.46 66.3 205.29 65.29C207.12 64.29 208.99 63.38 210.91 62.56C212.88 61.71 214.9 60.97 216.95 60.33C219 59.69 221.09 59.15 223.19 58.72C225.3 58.3 227.43 57.98 229.56 57.77C231.7 57.56 233.85 57.47 236 57.48C238.16 57.46 240.31 57.55 242.46 57.74C244.61 57.94 246.74 58.24 248.86 58.64C250.98 59.04 253.08 59.54 255.15 60.15C257.22 60.75 259.26 61.46 261.26 62.26C262.97 62.97 264.64 63.74 266.26 64.58C267.69 65.31 269.09 66.09 270.46 66.92C271.82 67.76 273.16 68.65 274.45 69.6C275.75 70.54 277 71.53 278.22 72.58C279.44 73.62 280.61 74.71 281.74 75.85ZM265.62 138.48C266.46 136.23 267.09 133.91 267.51 131.55C267.94 129.19 268.15 126.79 268.15 124.39C268.15 122 267.94 119.6 267.51 117.24C267.09 114.88 266.46 112.56 265.62 110.31C265.23 109.31 264.78 108.32 264.29 107.36C263.8 106.4 263.27 105.46 262.69 104.55C262.11 103.64 261.49 102.75 260.82 101.9C260.16 101.05 259.45 100.23 258.71 99.45C257.99 98.7 257.24 97.98 256.44 97.31C255.65 96.63 254.82 96 253.97 95.41C253.11 94.83 252.22 94.28 251.31 93.79C250.39 93.29 249.45 92.85 248.49 92.45C246.51 91.65 244.47 91.05 242.38 90.64C240.29 90.23 238.16 90.03 236.03 90.03C233.9 90.03 231.77 90.23 229.68 90.64C227.59 91.05 225.55 91.65 223.57 92.45C222.61 92.84 221.68 93.29 220.77 93.78C219.86 94.28 218.97 94.82 218.12 95.41C217.27 96 216.45 96.63 215.66 97.3C214.88 97.98 214.13 98.7 213.42 99.45C212.68 100.23 211.99 101.05 211.33 101.9C210.68 102.75 210.06 103.64 209.49 104.55C208.92 105.46 208.4 106.4 207.92 107.36C207.44 108.32 207.01 109.31 206.63 110.31C206.2 111.43 205.83 112.58 205.51 113.73C205.19 114.89 204.93 116.06 204.72 117.25C204.51 118.43 204.36 119.62 204.27 120.82C204.17 122.02 204.13 123.22 204.15 124.42C204.14 125.58 204.18 126.74 204.28 127.89C204.38 129.04 204.53 130.19 204.74 131.33C204.95 132.47 205.21 133.6 205.53 134.71C205.84 135.82 206.21 136.92 206.63 138C207.01 139 207.45 139.99 207.92 140.95C208.4 141.91 208.92 142.85 209.49 143.77C210.06 144.68 210.67 145.57 211.32 146.42C211.97 147.28 212.66 148.1 213.39 148.89C214.11 149.65 214.86 150.38 215.65 151.07C216.43 151.76 217.25 152.41 218.1 153.02C218.96 153.63 219.84 154.2 220.75 154.72C221.65 155.24 222.59 155.72 223.54 156.15C224.51 156.59 225.51 156.98 226.53 157.32C227.55 157.65 228.58 157.93 229.63 158.15C230.67 158.38 231.73 158.54 232.8 158.65C233.86 158.76 234.93 158.82 236 158.81C237.07 158.82 238.14 158.77 239.2 158.68C240.26 158.58 241.32 158.43 242.37 158.22C243.42 158.01 244.45 157.76 245.48 157.44C246.5 157.13 247.5 156.77 248.49 156.36C249.45 155.96 250.38 155.5 251.3 155C252.21 154.51 253.1 153.96 253.95 153.37C254.81 152.79 255.64 152.16 256.43 151.49C257.23 150.82 257.99 150.11 258.71 149.36C259.46 148.58 260.17 147.76 260.83 146.91C261.5 146.06 262.12 145.18 262.7 144.27C263.28 143.36 263.82 142.42 264.3 141.46C264.79 140.49 265.23 139.51 265.62 138.5L265.62 138.48Z" />
		</g>
	</g>
	<g id="Capa_8">
		<path id="Layer" class="shp0" d="M192.28 187.36L191.76 187.01C189.25 185.29 186.85 183.42 184.58 181.41C182.3 179.4 180.14 177.26 178.13 174.98C176.11 172.71 174.24 170.32 172.52 167.81C170.79 165.31 169.22 162.7 167.82 160.01C167.73 159.84 167.61 159.67 167.48 159.53C167.34 159.39 167.18 159.26 167.02 159.16C166.85 159.06 166.66 158.98 166.47 158.93C166.28 158.88 166.09 158.85 165.89 158.85L141.23 158.85C140.94 158.85 140.66 158.79 140.39 158.68C140.13 158.57 139.89 158.41 139.69 158.21C139.49 158 139.33 157.76 139.22 157.5C139.11 157.23 139.05 156.95 139.05 156.66L139.05 24.2C139.05 23.91 138.99 23.63 138.88 23.36C138.77 23.1 138.61 22.86 138.41 22.65C138.21 22.45 137.97 22.29 137.71 22.18C137.44 22.07 137.16 22.01 136.87 22.01C129.96 22.06 123.07 22.01 116.16 22.01C115.92 22.74 115.66 23.46 115.39 24.18C115.11 24.9 114.83 25.62 114.53 26.33C114.23 27.03 113.92 27.74 113.6 28.44C113.28 29.13 112.94 29.82 112.59 30.51C112.16 31.34 111.7 32.16 111.23 32.96C110.76 33.77 110.27 34.57 109.76 35.35C109.26 36.14 108.73 36.91 108.18 37.67C107.64 38.43 107.08 39.18 106.5 39.91C106.5 79.57 106.52 119.24 106.57 158.91L106.57 189.2C106.57 189.49 106.63 189.77 106.74 190.04C106.85 190.3 107.01 190.54 107.21 190.75C107.42 190.95 107.66 191.11 107.92 191.22C108.19 191.33 108.47 191.38 108.76 191.38L191.09 191.38C191.56 191.38 192.03 191.23 192.41 190.95C192.79 190.67 193.07 190.27 193.2 189.82C193.34 189.36 193.32 188.88 193.15 188.44C192.99 187.99 192.68 187.61 192.28 187.36L192.28 187.36Z" />
		<g id="Layer">
			<path id="Layer" class="shp0" d="M43.05 56.85C40.8 57.93 34.82 58.85 34.05 57.51C33.05 55.78 40.17 49.68 45.05 46.2C46.37 45.26 47.72 44.36 49.1 43.52C50.48 42.68 51.9 41.89 53.34 41.16C54.79 40.43 56.26 39.75 57.76 39.13C59.25 38.51 60.77 37.95 62.31 37.45C69.17 35.22 73.15 35.24 73.13 34.97C73.06 34.32 49.41 30.82 35.72 42.48C24.96 51.65 23.79 67.28 23.94 76.31C23.87 76.49 23.78 76.65 23.66 76.8C23.54 76.95 23.4 77.08 23.25 77.19C23.09 77.29 22.92 77.38 22.74 77.43C22.56 77.49 22.37 77.52 22.18 77.52L11.85 77.52C11.6 77.52 11.36 77.57 11.13 77.66C10.9 77.76 10.69 77.9 10.51 78.07C10.34 78.25 10.2 78.46 10.1 78.69C10.01 78.92 9.96 79.16 9.96 79.41L9.96 104.41C9.96 104.66 10.01 104.9 10.1 105.13C10.2 105.36 10.33 105.57 10.51 105.75C10.69 105.93 10.9 106.06 11.13 106.16C11.36 106.25 11.6 106.3 11.85 106.3L22.16 106.3C22.41 106.3 22.65 106.35 22.88 106.45C23.11 106.54 23.32 106.68 23.5 106.86C23.67 107.04 23.81 107.25 23.91 107.48C24 107.71 24.05 107.95 24.05 108.2L24.05 189.05C24.05 189.3 24.1 189.54 24.19 189.77C24.29 190 24.42 190.21 24.6 190.39C24.78 190.57 24.99 190.7 25.22 190.8C25.45 190.89 25.69 190.94 25.94 190.94L51.08 190.94C51.33 190.94 51.57 190.89 51.8 190.8C52.03 190.7 52.24 190.56 52.42 190.39C52.59 190.21 52.73 190 52.83 189.77C52.92 189.54 52.97 189.3 52.97 189.05L52.97 108.23C52.97 107.98 53.02 107.73 53.11 107.5C53.21 107.27 53.34 107.06 53.52 106.89C53.7 106.71 53.9 106.57 54.13 106.47C54.36 106.38 54.61 106.33 54.86 106.33L86.56 106.33C86.81 106.33 87.05 106.28 87.28 106.19C87.51 106.09 87.72 105.96 87.9 105.78C88.08 105.6 88.21 105.39 88.31 105.16C88.4 104.93 88.45 104.69 88.45 104.44L88.45 79.44C88.45 79.19 88.4 78.95 88.31 78.72C88.21 78.49 88.07 78.28 87.9 78.1C87.72 77.93 87.51 77.79 87.28 77.69C87.05 77.6 86.81 77.55 86.56 77.55L54.86 77.55C54.61 77.55 54.37 77.5 54.14 77.41C53.91 77.31 53.7 77.18 53.52 77C53.34 76.82 53.21 76.61 53.11 76.38C53.02 76.15 52.97 75.91 52.97 75.66L52.97 72.15C53 70.8 53.13 69.46 53.37 68.13C53.61 66.81 53.96 65.5 54.41 64.23C54.85 62.96 55.4 61.72 56.04 60.54C56.68 59.35 57.42 58.22 58.24 57.15C51.84 57.15 49.11 56.82 47.84 56.49C47.59 56.42 47.34 56.36 47.09 56.32C46.83 56.27 46.58 56.24 46.32 56.23C46.06 56.22 45.8 56.22 45.55 56.23C45.29 56.25 45.03 56.28 44.78 56.32C44.63 56.34 44.48 56.37 44.33 56.4C44.19 56.44 44.04 56.48 43.9 56.52C43.75 56.57 43.61 56.62 43.47 56.67C43.33 56.73 43.19 56.79 43.05 56.85L43.05 56.85Z" />
			<path id="Layer" class="shp1" d="M111.57 10.86C110.11 9.42 106.73 11.23 102.28 12.36C95.43 14.08 91.52 12.8 83.74 12.25C76.62 11.74 65.19 10.92 54.52 14.55C52.23 15.36 50 16.35 47.85 17.5C45.71 18.65 43.66 19.96 41.71 21.42C39.76 22.88 37.93 24.48 36.22 26.22C34.52 27.96 32.95 29.82 31.52 31.79C23.77 42.79 23.16 54.38 22.68 63.37C22.33 70.18 22.91 76.37 23.73 76.43C23.8 76.43 23.85 76.43 23.91 76.31C24.91 74.78 23.4 58.37 32.84 47.4C43.7 34.78 63.63 35.68 63.67 35.87C63.71 36.06 51.85 36.6 41.99 45.35C36.22 50.48 31.86 57.77 33.46 59.71C34.46 60.92 37.04 59.1 43.09 58.42C48.84 57.78 51.09 58.91 56.93 59.42L58.51 59.53C64.38 59.86 69.26 59.99 74.86 58.21C75.86 57.89 79.74 56.6 85.8 52.21C86.59 51.63 87.34 51.05 88.08 50.45C88.84 49.84 89.59 49.22 90.32 48.57C91.05 47.93 91.77 47.27 92.47 46.59C93.17 45.92 93.86 45.23 94.53 44.52C95.2 43.81 95.85 43.09 96.49 42.35C97.49 41.17 98.45 39.96 99.37 38.71C100.29 37.47 101.17 36.2 102.01 34.91C102.85 33.61 103.65 32.29 104.41 30.94C105.17 29.59 105.89 28.22 106.56 26.83C107.45 25.05 108.27 23.32 109.04 21.64C109.28 21.13 109.52 20.64 109.75 20.11C111.65 16 113 12.29 111.57 10.86Z" />
		</g>
	</g>
</svg>