<svg version="1.2" baseProfile="tiny-ps" xmlns="http://www.w3.org/2000/svg" viewBox="0 0 1779 598" width="598" height="598">
	<title>logo-svg</title>
	<style>
		tspan { white-space:pre }
		.shp0 { fill: #022303 } 
		.shp1 { fill: #006633 } 
	</style>
	<g id="Capa_4">
		<g id="Layer">
			<path id="Layer" fill-rule="evenodd" class="shp0" d="M1462.68 225.25C1465.15 227.63 1467.56 230.1 1469.88 232.6C1472.23 235.12 1474.49 237.68 1476.69 240.33C1478.89 242.98 1481.03 245.66 1483.09 248.42C1483.5 249.02 1483.83 249.64 1484.04 250.33C1484.28 251.04 1484.36 251.76 1484.33 252.47C1484.3 253.18 1484.19 253.9 1483.92 254.58C1483.68 255.24 1483.29 255.86 1482.85 256.43L1313.1 461C1312.35 461.89 1311.85 462.96 1311.64 464.12C1311.46 465.28 1311.58 466.47 1312.03 467.57C1312.47 468.64 1313.19 469.59 1314.11 470.31C1315.06 471.02 1316.16 471.47 1317.32 471.59C1321.07 471.94 1324.82 472.12 1328.57 472.12C1330.86 472.12 1333.15 472.06 1335.41 471.88C1337.7 471.74 1339.99 471.5 1342.25 471.17C1344.51 470.84 1346.77 470.46 1349.01 469.95C1351.24 469.47 1353.44 468.91 1355.64 468.25C1357.78 467.63 1359.92 466.92 1362.01 466.14C1364.12 465.34 1366.17 464.51 1368.22 463.58C1370.28 462.63 1372.27 461.65 1374.23 460.58C1376.2 459.51 1378.13 458.38 1380.03 457.19C1381.94 456 1383.81 454.72 1385.6 453.38C1387.41 452.04 1389.17 450.64 1390.89 449.18C1392.59 447.7 1394.22 446.18 1395.83 444.57C1397.41 443 1398.95 441.33 1400.41 439.63C1401.42 438.47 1402.41 437.28 1403.36 436.06C1404.31 434.84 1405.23 433.59 1406.09 432.35C1406.99 431.1 1407.85 429.79 1408.65 428.51C1409.49 427.2 1410.29 425.86 1411.03 424.52C1411.51 423.63 1412.19 422.85 1413.03 422.29C1413.86 421.69 1414.81 421.34 1415.82 421.19C1416.8 421.04 1417.85 421.13 1418.8 421.43C1419.75 421.75 1420.64 422.29 1421.36 423L1481.36 483.31C1481.9 483.84 1482.34 484.5 1482.67 485.18C1483 485.87 1483.17 486.64 1483.23 487.38C1483.29 488.16 1483.23 488.93 1483.03 489.68C1482.82 490.42 1482.46 491.1 1482.01 491.73C1479.99 494.44 1477.91 497.08 1475.74 499.67C1473.6 502.26 1471.36 504.79 1469.07 507.26C1466.75 509.73 1464.4 512.14 1461.99 514.46C1459.55 516.81 1457.08 519.1 1454.53 521.3C1451.67 523.8 1448.72 526.21 1445.72 528.53C1442.69 530.85 1439.62 533.11 1436.47 535.25C1433.34 537.4 1430.13 539.45 1426.86 541.38C1423.62 543.35 1420.28 545.22 1416.92 546.98C1413.56 548.73 1410.14 550.4 1406.69 551.95C1403.21 553.49 1399.7 554.92 1396.16 556.26C1392.59 557.6 1389.02 558.82 1385.39 559.95C1381.76 561.05 1378.1 562.06 1374.41 562.95C1370.66 563.88 1366.91 564.65 1363.14 565.33C1359.36 566.02 1355.55 566.58 1351.71 567.06C1347.9 567.5 1344.07 567.83 1340.23 568.07C1336.39 568.28 1332.55 568.4 1328.72 568.4C1316.13 568.49 1303.61 567.33 1291.26 564.92C1278.92 562.51 1266.84 558.91 1255.21 554.12C1243.57 549.33 1232.45 543.41 1222.01 536.41C1211.56 529.42 1201.81 521.42 1192.94 512.52C1188.51 508.03 1184.28 503.33 1180.33 498.45C1176.34 493.54 1172.62 488.46 1169.14 483.22C1165.66 477.95 1162.45 472.51 1159.5 466.95C1156.56 461.35 1153.88 455.64 1151.5 449.81C1150.76 447.99 1150.04 446.18 1149.36 444.36C1148.67 442.52 1147.99 440.68 1147.37 438.83C1146.74 436.99 1146.15 435.11 1145.58 433.24C1144.99 431.39 1144.45 429.49 1143.94 427.61C1143.86 427.29 1143.8 426.96 1143.74 426.6C1143.71 426.28 1143.71 425.92 1143.71 425.56C1143.74 425.23 1143.77 424.88 1143.86 424.55C1143.91 424.22 1144.03 423.9 1144.15 423.57L1229.68 198.77C1229.83 198.41 1229.98 198.05 1230.19 197.73C1230.4 197.4 1230.6 197.1 1230.87 196.8C1231.11 196.54 1231.41 196.27 1231.7 196.03C1232 195.79 1232.33 195.58 1232.66 195.41C1234.38 194.42 1236.11 193.5 1237.86 192.58C1239.59 191.66 1241.34 190.76 1243.13 189.9C1244.91 189.04 1246.7 188.21 1248.48 187.4C1250.3 186.6 1252.11 185.83 1253.93 185.08C1259.82 182.67 1265.86 180.53 1271.96 178.72C1278.08 176.9 1284.27 175.38 1290.52 174.16C1296.8 172.97 1303.1 172.05 1309.47 171.49C1315.81 170.89 1322.2 170.62 1328.57 170.65C1332.44 170.65 1336.3 170.77 1340.17 170.98C1344.04 171.22 1347.9 171.58 1351.74 172.05C1355.61 172.53 1359.42 173.09 1363.23 173.81C1367.03 174.52 1370.84 175.32 1374.59 176.28C1382 178.12 1389.29 180.41 1396.43 183.12C1403.6 185.83 1410.56 188.95 1417.34 192.49C1424.09 196.03 1430.67 199.96 1436.97 204.27C1443.28 208.59 1449.32 213.26 1455.06 218.28C1457.65 220.55 1460.21 222.87 1462.68 225.25ZM1349.54 279.25C1350.2 278.38 1350.64 277.34 1350.79 276.27C1350.94 275.17 1350.82 274.07 1350.43 273.06C1350.05 272.02 1349.42 271.12 1348.59 270.41C1347.76 269.7 1346.74 269.19 1345.67 268.98L1342.1 268.45C1340.97 268.33 1339.84 268.24 1338.74 268.15C1337.61 268.06 1336.48 268 1335.35 267.94C1334.22 267.88 1333.09 267.82 1331.96 267.79C1330.83 267.76 1329.7 267.76 1328.57 267.76C1325.41 267.73 1322.26 267.85 1319.11 268.15C1315.95 268.42 1312.83 268.86 1309.71 269.46C1306.61 270.05 1303.55 270.8 1300.51 271.69C1297.48 272.58 1294.48 273.62 1291.56 274.81C1288.73 275.97 1285.94 277.28 1283.26 278.74C1280.55 280.2 1277.93 281.77 1275.38 283.5C1272.85 285.23 1270.41 287.1 1268.06 289.06C1265.74 291.06 1263.48 293.17 1261.36 295.37C1259.16 297.69 1257.11 300.1 1255.15 302.6C1253.18 305.13 1251.37 307.75 1249.67 310.42C1247.98 313.13 1246.4 315.9 1245 318.75C1243.57 321.61 1242.3 324.53 1241.16 327.5C1239.89 330.86 1238.78 334.31 1237.83 337.77C1236.88 341.25 1236.11 344.76 1235.48 348.33C1234.86 351.87 1234.41 355.44 1234.11 359.04C1233.85 362.64 1233.73 366.24 1233.79 369.84C1233.79 373.29 1233.94 377.28 1234.29 381.74C1234.65 386.2 1235.24 390.72 1236.05 395.28C1236.85 399.83 1237.83 404.23 1239.02 408.43L1239.02 408.57C1239.35 409.73 1240 410.78 1240.93 411.55C1241.82 412.35 1242.92 412.89 1244.11 413.1C1245.3 413.3 1246.52 413.19 1247.62 412.74C1248.75 412.29 1249.7 411.55 1250.42 410.57L1349.54 279.25Z" />
			<path id="Layer" class="shp0" d="M1755.53 192.46C1756.39 192.46 1757.22 192.64 1758.03 192.97C1758.8 193.29 1759.54 193.77 1760.14 194.36C1760.73 194.96 1761.21 195.7 1761.54 196.48C1761.86 197.28 1762.04 198.11 1762.04 198.98L1762.04 281.54C1762.04 282.4 1761.86 283.23 1761.54 284.04C1761.21 284.81 1760.73 285.52 1760.14 286.15C1759.51 286.74 1758.8 287.22 1758.03 287.55C1757.22 287.87 1756.39 288.02 1755.53 288.02L1677.38 288.02C1667.8 287.96 1658.31 289.78 1649.47 293.41C1640.61 297.04 1632.54 302.39 1625.79 309.17C1619.01 315.93 1613.65 323.99 1610.02 332.86C1606.4 341.69 1604.58 351.18 1604.64 360.76L1604.64 561.58C1604.64 562.45 1604.46 563.28 1604.13 564.05C1603.81 564.86 1603.33 565.57 1602.74 566.17C1602.14 566.76 1601.43 567.24 1600.62 567.56C1599.85 567.89 1599.02 568.07 1598.15 568.07L1515.21 568.07C1514.35 568.07 1513.52 567.89 1512.74 567.56C1511.94 567.24 1511.23 566.76 1510.63 566.17C1510.04 565.57 1509.56 564.86 1509.23 564.05C1508.91 563.28 1508.73 562.45 1508.73 561.58L1508.73 198.26C1508.73 197.4 1508.91 196.57 1509.23 195.79C1509.56 194.99 1510.04 194.28 1510.63 193.68C1511.23 193.09 1511.94 192.61 1512.74 192.28C1513.52 191.96 1514.35 191.78 1515.21 191.78L1528.54 191.78C1529.05 191.78 1529.58 191.84 1530.09 191.96C1530.59 192.07 1531.07 192.25 1531.55 192.49C1531.99 192.73 1532.44 193.03 1532.83 193.35C1533.21 193.71 1533.57 194.1 1533.87 194.51L1559.39 230.54C1559.9 231.29 1560.55 231.88 1561.33 232.36C1562.07 232.8 1562.9 233.13 1563.79 233.25C1564.69 233.37 1565.58 233.31 1566.44 233.04C1567.28 232.8 1568.08 232.39 1568.76 231.82C1576.32 225.51 1584.41 219.89 1592.92 215.01C1601.46 210.1 1610.38 205.97 1619.63 202.61C1628.86 199.27 1638.38 196.74 1648.04 195.02C1657.74 193.32 1667.56 192.46 1677.38 192.46L1755.53 192.46Z" />
			<path id="Layer" class="shp0" d="M1196.87 196.36L1109.64 425.44L1056.81 563.96C1056.57 564.56 1056.27 565.12 1055.86 565.63C1055.47 566.17 1054.99 566.61 1054.49 566.97C1053.95 567.36 1053.36 567.62 1052.76 567.83C1052.14 568.04 1051.51 568.16 1050.86 568.16L963.55 568.16C962.89 568.13 962.27 568.04 961.64 567.83C961.05 567.62 960.45 567.33 959.95 566.97C959.41 566.58 958.93 566.14 958.55 565.63C958.13 565.12 957.83 564.56 957.6 563.96L912.26 444.96C912.11 444.6 912.02 444.22 911.96 443.86C911.87 443.47 911.84 443.09 911.84 442.7C911.84 442.31 911.87 441.92 911.96 441.54C912.02 441.18 912.11 440.79 912.26 440.44C914.28 434.81 916.04 429.07 917.55 423.3C919.04 417.5 920.32 411.64 921.3 405.75C922.31 399.86 923.03 393.91 923.5 387.96C923.98 381.98 924.22 376 924.16 370.02C924.16 369 924.16 367.58 924.16 365.85C923.92 359.25 923.44 352.64 922.67 346.1C921.93 339.52 920.92 333.01 919.67 326.52C918.42 320.03 916.9 313.58 915.11 307.21C913.36 300.84 911.34 294.57 909.07 288.35C894.38 249.49 869.12 220.19 853.44 204.45C852.55 203.56 851.93 202.4 851.69 201.15C851.42 199.93 851.54 198.62 852.02 197.43C852.49 196.27 853.3 195.26 854.37 194.51C855.41 193.8 856.63 193.41 857.91 193.38L920.38 192.01C921.06 191.98 921.75 192.1 922.4 192.28C923.06 192.49 923.65 192.79 924.22 193.17C924.78 193.56 925.29 194.04 925.7 194.57C926.12 195.11 926.42 195.7 926.66 196.36L1001.18 408.93C1001.62 410.21 1002.46 411.31 1003.56 412.08C1004.63 412.89 1005.97 413.3 1007.31 413.3C1008.65 413.3 1009.98 412.89 1011.06 412.08C1012.16 411.31 1012.99 410.21 1013.44 408.93L1087.63 196.12C1087.87 195.5 1088.16 194.9 1088.58 194.36C1089 193.83 1089.47 193.35 1090.01 192.97C1090.57 192.58 1091.17 192.28 1091.82 192.07C1092.45 191.87 1093.1 191.78 1093.79 191.78L1198.89 191.78L1196.87 196.36Z" />
			<path id="Layer" fill-rule="evenodd" class="shp0" d="M838.15 225.66C842.56 230.16 846.75 234.89 850.71 239.8C854.66 244.7 858.38 249.82 861.8 255.09C865.25 260.35 868.44 265.8 871.35 271.39C874.27 277.01 876.89 282.73 879.24 288.59C881.82 295.04 884.09 301.65 886.02 308.34C887.95 315.01 889.56 321.79 890.81 328.63C892.09 335.5 893.01 342.41 893.61 349.34C894.2 356.27 894.44 363.23 894.35 370.19C894.38 376.38 894.14 382.57 893.64 388.73C893.13 394.89 892.33 401.02 891.26 407.12C890.15 413.22 888.82 419.25 887.18 425.23C885.54 431.18 883.67 437.08 881.5 442.88C880.75 444.93 880.04 446.89 879.24 448.83C876.86 454.66 874.21 460.37 871.29 465.96C868.35 471.56 865.17 476.97 861.71 482.27C858.29 487.53 854.57 492.62 850.65 497.56C846.72 502.47 842.56 507.2 838.15 511.72C833.81 516.12 829.26 520.32 824.5 524.31C819.74 528.26 814.8 532.01 809.68 535.49C804.57 539 799.3 542.25 793.89 545.22C788.44 548.2 782.88 550.93 777.2 553.37C765.39 558.4 753.13 562.24 740.55 564.8C727.99 567.39 715.2 568.67 702.38 568.67C689.53 568.67 676.73 567.39 664.18 564.8C651.6 562.24 639.34 558.4 627.53 553.37C616.02 548.43 605.01 542.39 594.69 535.31C584.33 528.23 574.72 520.17 565.95 511.22C557.17 502.26 549.29 492.47 542.42 482C535.54 471.53 529.71 460.4 525.01 448.8C522.48 442.58 520.25 436.24 518.32 429.82C516.42 423.39 514.81 416.87 513.56 410.27C512.28 403.69 511.33 397.03 510.73 390.37C510.11 383.67 509.84 376.98 509.9 370.25C509.84 363.47 510.11 356.69 510.7 349.93C511.33 343.18 512.25 336.46 513.53 329.79C514.81 323.13 516.39 316.55 518.32 310.04C520.22 303.55 522.45 297.13 525.01 290.85C527.39 284.99 530.04 279.25 532.99 273.65C535.9 268.03 539.11 262.58 542.6 257.29C546.05 251.99 549.76 246.88 553.72 241.97C557.68 237.03 561.87 232.3 566.31 227.78C570.68 223.37 575.23 219.15 579.99 215.19C584.78 211.2 589.72 207.49 594.83 203.97C599.98 200.49 605.28 197.25 610.72 194.25C616.16 191.27 621.73 188.56 627.44 186.12C633.3 183.59 639.31 181.39 645.41 179.49C651.51 177.59 657.72 175.98 663.97 174.7C670.25 173.45 676.59 172.5 682.92 171.87C689.29 171.25 695.68 170.98 702.08 171.01C708.51 170.95 714.9 171.22 721.3 171.78C727.69 172.38 734.03 173.27 740.34 174.46C746.64 175.65 752.89 177.14 759.05 178.95C765.21 180.74 771.28 182.85 777.23 185.23C782.31 187.34 787.28 189.63 792.1 192.13C796.36 194.31 800.52 196.63 804.6 199.1C808.64 201.59 812.63 204.24 816.47 207.07C820.33 209.87 824.05 212.81 827.68 215.93C831.31 219.03 834.79 222.27 838.15 225.66ZM790.2 412C792.7 405.3 794.57 398.4 795.82 391.38C797.1 384.36 797.72 377.22 797.72 370.08C797.72 362.97 797.1 355.82 795.82 348.8C794.57 341.78 792.7 334.88 790.2 328.19C789.04 325.21 787.7 322.27 786.24 319.41C784.78 316.55 783.21 313.76 781.48 311.05C779.76 308.34 777.91 305.69 775.92 303.17C773.95 300.64 771.84 298.2 769.64 295.88C767.5 293.64 765.27 291.5 762.89 289.51C760.54 287.49 758.07 285.61 755.54 283.86C752.98 282.13 750.33 280.49 747.63 279.04C744.89 277.55 742.09 276.24 739.24 275.05C733.35 272.67 727.28 270.89 721.06 269.67C714.84 268.45 708.51 267.85 702.17 267.85C695.83 267.85 689.5 268.45 683.28 269.67C677.06 270.89 670.99 272.67 665.1 275.05C662.25 276.21 659.48 277.55 656.77 279.01C654.07 280.49 651.42 282.1 648.89 283.86C646.36 285.61 643.92 287.49 641.57 289.48C639.25 291.5 637.02 293.64 634.91 295.88C632.71 298.2 630.65 300.64 628.69 303.17C626.76 305.69 624.91 308.34 623.22 311.05C621.52 313.76 619.97 316.55 618.54 319.41C617.12 322.27 615.84 325.21 614.71 328.19C613.43 331.52 612.33 334.94 611.38 338.36C610.42 341.81 609.65 345.29 609.02 348.83C608.4 352.34 607.95 355.88 607.69 359.45C607.39 363.02 607.27 366.59 607.33 370.16C607.3 373.62 607.42 377.07 607.72 380.49C608.01 383.91 608.46 387.33 609.08 390.72C609.71 394.11 610.48 397.48 611.43 400.78C612.36 404.08 613.46 407.35 614.71 410.57C615.84 413.54 617.15 416.49 618.54 419.34C619.97 422.2 621.52 425 623.22 427.73C624.91 430.44 626.73 433.09 628.66 435.62C630.59 438.18 632.65 440.62 634.82 442.97C636.96 445.23 639.19 447.4 641.54 449.45C643.86 451.5 646.3 453.44 648.83 455.25C651.39 457.07 654.01 458.76 656.71 460.31C659.39 461.86 662.19 463.29 665.01 464.57C667.9 465.87 670.87 467.04 673.91 468.05C676.94 469.03 680.01 469.86 683.13 470.52C686.22 471.2 689.38 471.68 692.56 472C695.71 472.33 698.9 472.51 702.08 472.48C705.26 472.51 708.45 472.36 711.6 472.09C714.75 471.8 717.91 471.35 721.03 470.72C724.15 470.1 727.22 469.36 730.28 468.4C733.32 467.48 736.29 466.41 739.24 465.19C742.09 464 744.86 462.63 747.6 461.14C750.3 459.69 752.95 458.05 755.48 456.29C758.04 454.57 760.51 452.69 762.86 450.7C765.24 448.71 767.5 446.6 769.64 444.36C771.87 442.04 773.98 439.6 775.95 437.08C777.94 434.55 779.79 431.93 781.51 429.22C783.24 426.51 784.84 423.72 786.27 420.86C787.73 417.98 789.04 415.06 790.2 412.05L790.2 412Z" />
		</g>
	</g>
	<g id="Capa_8">
		<path id="Layer" class="shp0" d="M572.02 557.42C573.21 558.16 574.13 559.29 574.61 560.63C575.11 561.94 575.17 563.37 574.75 564.74C574.37 566.08 573.53 567.27 572.4 568.1C571.27 568.93 569.87 569.38 568.48 569.38L323.55 569.38C322.69 569.38 321.86 569.23 321.05 568.9C320.28 568.58 319.57 568.1 318.94 567.5C318.35 566.88 317.87 566.17 317.54 565.39C317.22 564.59 317.04 563.76 317.04 562.89L317.04 472.78C316.89 354.75 316.83 236.73 316.83 118.74C318.55 116.57 320.22 114.33 321.83 112.07C323.46 109.81 325.04 107.52 326.53 105.17C328.04 102.85 329.5 100.47 330.9 98.06C332.3 95.68 333.67 93.24 334.95 90.77C335.99 88.72 337 86.67 337.95 84.61C338.9 82.53 339.82 80.42 340.72 78.34C341.61 76.22 342.44 74.08 343.28 71.94C344.08 69.8 344.85 67.65 345.57 65.48C366.12 65.48 386.62 65.63 407.18 65.48C408.04 65.48 408.87 65.66 409.68 65.99C410.45 66.32 411.16 66.79 411.76 67.39C412.35 68.01 412.83 68.73 413.16 69.5C413.48 70.3 413.66 71.14 413.66 72L413.66 466.08C413.66 466.95 413.84 467.78 414.17 468.58C414.5 469.36 414.97 470.07 415.57 470.69C416.16 471.29 416.88 471.77 417.65 472.09C418.45 472.42 419.28 472.6 420.15 472.6L493.51 472.6C494.1 472.6 494.67 472.69 495.23 472.84C495.8 472.99 496.36 473.22 496.87 473.52C497.35 473.82 497.82 474.21 498.24 474.62C498.63 475.04 498.98 475.54 499.25 476.05C503.42 484.05 508.09 491.82 513.23 499.26C518.35 506.72 523.91 513.83 529.92 520.59C535.9 527.37 542.33 533.74 549.11 539.72C555.86 545.7 563 551.26 570.47 556.38L572.02 557.42L572.02 557.42Z" />
		<g id="Layer">
			<path id="Layer" class="shp0" d="M128.07 169.14C128.49 168.96 128.9 168.78 129.32 168.6C129.74 168.45 130.15 168.3 130.6 168.15C131.02 168.04 131.46 167.92 131.88 167.8C132.32 167.71 132.77 167.62 133.22 167.56C133.96 167.44 134.73 167.35 135.51 167.29C136.25 167.26 137.02 167.26 137.8 167.29C138.57 167.32 139.32 167.41 140.09 167.56C140.83 167.68 141.58 167.86 142.32 168.06C146.1 169.05 154.22 170.03 173.26 170.03C170.82 173.21 168.62 176.57 166.71 180.11C164.81 183.62 163.17 187.31 161.87 191.09C160.53 194.87 159.49 198.77 158.77 202.7C158.06 206.65 157.67 210.64 157.58 214.66L157.58 225.1C157.58 225.84 157.73 226.56 158 227.24C158.3 227.92 158.68 228.55 159.22 229.08C159.75 229.62 160.38 230.01 161.06 230.3C161.75 230.57 162.46 230.72 163.2 230.72L257.51 230.72C258.25 230.72 258.97 230.87 259.65 231.14C260.33 231.43 260.96 231.85 261.5 232.36C262 232.89 262.42 233.52 262.71 234.2C262.98 234.89 263.13 235.6 263.13 236.34L263.13 310.72C263.13 311.47 262.98 312.18 262.71 312.86C262.42 313.55 262.03 314.17 261.5 314.71C260.96 315.24 260.33 315.63 259.65 315.93C258.97 316.2 258.25 316.34 257.51 316.34L163.2 316.34C162.46 316.34 161.72 316.49 161.03 316.76C160.35 317.06 159.75 317.48 159.22 318.01C158.68 318.52 158.3 319.14 158 319.83C157.73 320.51 157.58 321.25 157.58 322L157.58 562.45C157.58 563.19 157.43 563.91 157.16 564.59C156.87 565.27 156.45 565.9 155.95 566.43C155.41 566.94 154.78 567.36 154.1 567.65C153.42 567.92 152.7 568.07 151.96 568.07L77.17 568.07C76.43 568.07 75.71 567.92 75.03 567.65C74.34 567.36 73.72 566.97 73.18 566.43C72.65 565.9 72.26 565.27 71.96 564.59C71.7 563.91 71.55 563.19 71.55 562.45L71.55 321.91C71.55 321.16 71.4 320.45 71.13 319.77C70.83 319.08 70.42 318.46 69.91 317.92C69.38 317.39 68.75 316.97 68.07 316.7C67.38 316.4 66.67 316.26 65.92 316.26L35.25 316.26C34.51 316.26 33.8 316.11 33.11 315.84C32.43 315.54 31.8 315.15 31.27 314.62C30.73 314.08 30.34 313.46 30.05 312.77C29.78 312.09 29.63 311.38 29.63 310.63L29.63 236.25C29.63 235.51 29.78 234.8 30.05 234.11C30.34 233.43 30.76 232.8 31.27 232.27C31.8 231.76 32.43 231.35 33.11 231.05C33.8 230.78 34.51 230.63 35.25 230.63L65.98 230.63C66.55 230.63 67.11 230.54 67.65 230.36C68.19 230.22 68.69 229.95 69.17 229.65C69.61 229.32 70.03 228.94 70.39 228.49C70.74 228.04 71.01 227.57 71.22 227.03C70.77 200.17 74.25 153.67 106.26 126.38C146.99 91.69 217.35 102.11 217.56 104.04C217.62 104.84 205.77 104.78 185.37 111.42C180.79 112.91 176.26 114.57 171.83 116.42C167.37 118.26 163 120.28 158.68 122.46C154.4 124.63 150.17 126.98 146.07 129.48C141.96 131.98 137.95 134.65 134.02 137.45C119.5 147.8 98.32 165.95 101.3 171.1C103.59 175.09 121.38 172.35 128.07 169.14L128.07 169.14Z" />
			<path id="Layer" class="shp1" d="M326.5 59.83C325.81 61.41 325.1 62.86 324.38 64.38C322.09 69.38 319.65 74.53 317.01 79.82C315.01 83.96 312.87 88.03 310.61 92.05C308.35 96.07 305.97 99.99 303.47 103.86C300.97 107.7 298.35 111.48 295.62 115.17C292.88 118.89 290.02 122.49 287.05 126C285.15 128.2 283.21 130.34 281.22 132.45C279.23 134.56 277.17 136.62 275.09 138.61C273.01 140.63 270.87 142.6 268.69 144.5C266.52 146.44 264.29 148.28 262.03 150.1C259.83 151.88 257.6 153.61 255.25 155.33C237.22 168.39 225.68 172.23 222.7 173.18C206.04 178.48 191.53 178.09 174.06 177.11L169.36 176.78C151.99 175.26 145.29 171.9 128.19 173.81C110.19 175.83 102.52 181.24 99.54 177.64C94.78 171.87 107.75 150.18 124.92 134.92C154.25 108.89 189.53 107.28 189.41 106.72C189.29 106.15 130 103.47 97.7 141.02C69.61 173.66 74.11 222.48 71.13 227.03C70.95 227.39 70.8 227.39 70.59 227.39C68.16 227.21 66.43 208.79 67.47 188.53C68.9 161.79 70.71 127.31 93.77 94.58C98.02 88.72 102.69 83.18 107.75 78.01C112.84 72.83 118.28 68.07 124.08 63.73C129.88 59.38 135.98 55.49 142.35 52.06C148.75 48.64 155.38 45.7 162.19 43.29C193.93 32.49 227.94 34.93 249.12 36.45C272.26 38.08 283.9 41.89 304.27 36.77C317.51 33.41 327.57 28.03 331.91 32.31C336.17 36.56 332.15 47.6 326.5 59.83Z" />
		</g>
	</g>
</svg>