<svg version="1.2" baseProfile="tiny-ps" xmlns="http://www.w3.org/2000/svg" viewBox="0 0 123 70" width="123" height="70">
	<title>icon-svg</title>
	<style>
		tspan { white-space:pre }
		.shp0 { fill: #fff } 
	</style>
	<g id="Capa_9">
		<path id="Layer" class="shp0" d="M111.32 19.07C112.38 20.78 110.22 24.07 107.41 27.59C100.75 36.06 92.47 46.59 76.62 53.2C69.7 56.1 65.62 56.45 64.62 56.52C58.76 56.95 54.05 55.67 48.42 53.98C41.62 51.98 39.92 50.1 33.68 49.31C27.68 48.56 24.68 49.73 24.01 48.31C22.91 46.06 28.85 39.99 35.66 36.31C47.29 30.11 58.96 32.31 58.96 32.16C58.96 32.01 39.8 26.43 26.29 36.16C13.93 45.07 11.96 62.68 10.64 62.27C9.86 62.02 10.74 55.86 12.64 49.32C15.2 40.69 18.5 29.57 28.64 20.67C30.49 19.09 32.45 17.65 34.51 16.37C36.57 15.09 38.73 13.96 40.96 13C43.19 12.04 45.49 11.25 47.84 10.63C50.19 10.02 52.58 9.58 55 9.32C66.22 8.32 77.15 11.75 83.95 13.91C91.38 16.27 94.89 18.43 101.95 18.35C106.53 18.29 110.24 17.32 111.32 19.07Z" />
	</g>
</svg>